<?xml version="1.0" encoding="utf-8"?>
<svg version="1.1" id="Layer_1" xmlns="http://www.w3.org/2000/svg" xmlns:xlink="http://www.w3.org/1999/xlink" x="0px" y="0px"
	 viewBox="0 0 512 512" style="enable-background:new 0 0 512 512;" xml:space="preserve">
<style type="text/css">
	.st0{fill:#DD3735;}
</style>
<g>
	<path class="st0" d="M512.3,242.6c-0.2-6.6-0.5-13.3-0.9-19.9c-0.3-6.8-0.5-13.5-1.2-20.3c-1.2-9.2-2.4-18.5-4.5-27.5
		c-1.6-7.4-4.2-14.5-6.8-21.6c-3.3-8.3-6.6-16.8-10.7-24.8c-6.8-12.8-15.6-24.2-23.7-36.2c-5.4-7.6-12.3-13.9-17.5-21.6
		c-2.9-4.5-7.3-8.3-11.6-11.8c-6.9-5.5-14.2-10.6-21.5-15.4c-5.5-3.8-11.1-7.4-17-10.7c-4.7-2.6-9.7-4.7-14.5-6.9
		c-5.5-2.6-10.9-5.7-17.1-6.9c-1.6-0.3-2.9-0.9-4.5-1.4c-4-1.4-7.8-2.9-11.8-4.2c-6.1-1.9-11.9-4.2-18.2-5.7
		c-6.1-1.6-12.3-2.6-18.5-3.5c-6.9-1-14-1.4-21-2.1c-4.5-0.5-9-1-13.3-1.2c-6.6-0.3-13.3-0.3-19.9-0.5c-3.3-0.2-6.8-0.5-10-0.3
		c-5,0.2-10,0.7-15.1,1.4c-4.8,0.5-9.7,1.4-14.4,2.1c-5.7,0.7-11.4,1-17.1,1.7c-5.4,0.7-10.9,1.7-16.3,2.6c-1.9,0.3-3.8,1-5.7,1.4
		c-4.2,0.9-8.5,1.2-12.6,2.6c-7.4,2.3-14.9,4.8-22.2,7.6c-6.8,2.8-13.3,5.7-19.7,9.2c-6.6,3.6-12.8,8-19,12.1
		c-5.9,4-11.8,8.1-17.5,12.6c-5.5,4.3-10.7,9.2-15.8,14c-2.8,2.8-5,6.1-7.6,9.2c-4.3,5-8.7,9.9-12.8,15.1c-3.5,4.3-6.6,8.8-9.9,13.3
		c-5.9,8-10.9,16.4-15.6,24.9c-1.9,3.5-3.6,6.9-5.4,10.4c-2.6,5.2-5.4,10.2-7.8,15.6c-1.7,3.6-3.1,7.6-4.2,11.6
		C7,176,4.6,184.6,2.3,193.1c-2.1,7.6-2.6,15.6-2.8,23.4c-0.2,6.9,0.5,13.7,1.2,20.6c0.2,1.7-0.9,3.8,1.2,5.2l-0.2,0.9
		c-0.5,1,0,2.1,1,2.4l0.2,0.3H2.2c-0.5,1.6,1.2,2.8,0.5,4.5c-0.2,0.3,0.5,1,0.9,1.6c0,0.5-0.2,1.2,0,1.7c0.2,1.6,0.9,3.1,0.9,4.8
		c0,1.2,1,2.6,1.4,3.8c0.2,0.5,0,1.4-0.3,1.7c-1,1.2-0.9,2.3,0.7,2.9c0.3,0.2,0.9,0.9,0.9,1.2c0,1-0.3,2.1-0.5,3.1
		c0.3,0.3,0.5,0.7,0.3,1c0,0.5-0.5,1-0.3,1.4c1.4,2.8,1.9,5.9,2.1,9c0,0.7,0.3,1.4,0.7,2.3c0.2,0,0.7,0,1,0.2l-1,3.1
		c0.9-0.5,1.6-0.7,2.4-1c0.5,2.3,1,4.3,1.7,6.2c0.2,0.3,0.5,0.7,1,1c-0.2,0.3-0.2,1-0.5,1.2c0.7,3.1,1,6.1,2.3,9l0.5-0.2
		c-0.5-3.1-0.9-6.4-1.4-9.5v-1l0.5-0.2c0.2,0.7,0.5,1.6,0.5,2.1c1.4,0,3.5,0.9,4.8,0.9c0.2-0.5,0.3-1.2,0.5-1.6
		c-1-1-1.9-2.6-2.9-3.6c0.3,1.4,0,1.9,0,2.4c-0.7-0.3-1.6-0.7-2.4-1c0.7-0.9,1.4-1.7,2.4-2.8c0-1.6-0.9-2.9-3.3-2.8
		c1-0.3,2.1-0.9,3.3-1.2c0.2,0.5,0.3,1,0.5,1.4c1.4-2.4-0.7-4.3-0.7-6.8c0.2-2.9-1.6-5.9-2.1-9c-0.9-4.8-0.7-12.1-1.2-17
		c0-0.3-0.5-0.7-0.9-1l-1.2,2.6c0.5,4.2,1,8.3,1.4,12.5l-0.3,0.2c-0.7-3.6-1.4-7.4-2.3-11.6c-0.2,1.2-0.3,1.7-0.3,2.4
		c-0.5-0.2-0.7-0.3-1.6-0.7c0.7,1.6,1.4,2.6,1.9,3.8c-1.2-0.5-2.6-0.3-2.6-0.3v4.8c-1.7-1.7-2.3-3.1-3.1-4.3
		c-0.3-1.4-0.5-2.8-0.9-4.2l0.5-0.2c-0.2-0.7-0.5-1.2-0.5-1.7c-0.2-1.2-0.3-2.6-0.5-4.2c0.2-0.2,0.9-0.3,1.2-0.7l-1.4-2.1
		c1.4,0.2,2.3,0.3,3.1,0.3c0-0.3,0.2-0.5,0-0.7c-1.7-1.6-0.5-2.9,0.2-4.3c0.3-0.7,1.6-0.9,1.9-1.6c1.4-2.6,3.6-4.7,3.6-8
		c0-1.6,0.5-3.3,0.7-4.8c0.3-2.9,0.7-5.9,0.9-8.8c0.3-3.8,0-7.6,0.9-11.3c1.4-6.1,3.1-12.1,5-18.2c1.4-4.3,2.9-8.5,4.7-12.8
		c2.6-6.8,5-13.5,8.3-19.9c4.7-9.3,10-18.4,15.2-27.5c3.3-5.7,6.8-11.1,10.4-16.6c3.5-5.4,6.9-10.9,10.9-15.9
		c5.5-7.1,11.6-13.7,18.4-19.6c6.9-6.2,13.5-12.6,21-18.4c9.7-7.4,19.9-14,30.8-19.7c8.8-4.7,18-8.3,27.2-11.8
		c5.9-2.3,12.3-3.3,18.4-5.2c6.9-2.3,13.9-3.3,21.1-3.5c4.7-0.2,9.2-0.7,13.9-1.2c4.2-0.3,8.3-0.7,12.8-1.2c-0.5,0.7-0.7,1-0.9,1.4
		c-1.9,2.8-4,5.5-5.9,8.3c-1.6,2.3-3.3,4.7-4.8,6.9c-2.8,3.6-5.7,7.3-8.3,11.1c-4,5.7-7.6,11.6-11.8,17.3c-4.2,5.5-8.7,10.7-13,16.1
		c-5.7,7.4-11.1,15.1-16.8,22.5c-5.2,7.1-10.7,13.9-15.8,21c-4.5,6.2-8.5,12.8-12.8,19.2c-6.4,9.5-12.8,18.9-19.2,28.4
		c-5,7.3-10,14.4-15.2,21.6c-0.3,0.5-0.9,0.7-1.4,1c-0.3,0.3-1,0.7-1,1c-0.3,1.2-0.3,2.4-0.9,3.5c-1.4,2.6-2.8,5.2-4.3,7.6
		c-0.9,1.4-2.1,2.6-3.1,4c-0.3-0.2-0.5-0.3-0.9-0.3c0.7-1.7,3.6-2.8,2.3-5.4c-0.9,1.4-1.7,2.6-2.6,4l-2.1,4.2
		c0.7,0.5,1.9,0.9,0.7,1.9c-0.5,0.9-1,1.9-1.6,2.8l0.3,0.2c0.5-0.7,1-1.2,1.6-1.9l0.5,0.2c-0.5,1.7-1.6,3.3-2.4,4.8
		c-0.7,1.4-2.4,2.4-3.6,3.5l1.6,0.9c0.5-0.7,0.7-0.3,1.2-1c0.3,0.5,0.9-0.3,1,0.2c0.5-0.7,1-1.2,1.2-1.7c0.7-1.7,1.7-3.1,3.5-3.8
		c0.7-0.3,1.2-0.9,1.7-1.4c5.2-5.4,10.6-10.6,15.2-16.3c7.3-8.8,13.9-18,20.8-27c2.9-3.8,6.4-7.6,9.5-11.3c0.3,0.2,0.7,0.2,0.9,0.3
		c-0.3,3.6-0.7,7.4-0.9,11.1c-0.5,6.4-0.9,12.8-1.4,19.4c-0.2,2.6,0,5.2-0.2,7.8c0,0.7-0.5,1.2-0.5,1.9c0,1.7,0.5,3.6,0.5,5.4
		c-0.5,6.4-1.2,12.6-1.7,19c-0.2,1.4,0.5,2.8,0.9,4c-0.2-0.2-0.3-0.3-0.9-0.7c0,10,1.9,19.9,0.3,29.8c0.7-0.2,1-0.3,1-0.7
		c0.2-1.2,0.5-2.4,0.5-3.6c0.2-1,0-2.1,0-3.3v-1.7c0.2-3.1,0.9-6.4,0.5-9.5c-0.3-3.5-0.3-6.8,0.3-10c0.3-1.4-0.2-3.1,0.7-4.8v2.6
		c-0.2,9.9,0.2,19.7-1.2,29.6c-0.2,0.9,0.5,2.4-1.4,2.3c-0.2,0-0.3,0.9-0.7,1.4c-0.9,1.7,1,4-0.7,5.7c-0.3,0.3,0.3,1.9,0.5,2.9
		c0,0.3,0.2,0.7,0,0.9c-0.7,1.2-0.7,1.2,0.3,1.4c0.2,3.8,0.5,7.3,0.7,10.9h0.5c2.3-6.6,0.9-13.3,2.1-20.1c0.2,2.8,0.3,5.5,0.2,8.5
		c0,4.5-0.2,8.8-0.3,13.3c0,0.9-0.2,1.7-0.3,2.6c-0.5,2.4-0.7,4.8-1.6,7.1c-0.7,1.7-0.3,4.3-0.3,6.4v6.6c0,0.2,0.5,0.7,0.5,1.4
		c0.2,1.6-0.7,3.1-0.2,4.8c0.2,0.3-0.2,0.9-0.3,1.2c-0.2,0.5-0.3,1-0.2,1.6l0.5,2.6c0,0.2,0.2,0.3,0.3,0.7c0.2-0.7,0.2-1.2,0.2-1.4
		c2.9,0.3,1.4,2.9,2.8,4.3c-0.7,0.3-1.2,0.5-1.2,0.7c0.2,0.7,0.5,1.2,0.5,1.9c0,1.6-0.2,2.9-0.3,4.5c0,4-0.2,8-0.2,11.8
		c0,0.5,0.2,1,0.2,1.6c0,0.3-0.2,0.7-0.2,1.2v3.6h0.7c-0.3,0.5-0.7,1-1.2,1.6l-0.7-0.2v-21.8h-2.6c-0.3,10.4,0.5,19.7-1.4,29.4
		c-2.1,0.2-2.8,0.5-5,0.5c-5.4,0-10.7,0-16.1,0.2c-6.4,0-12.6,0.2-19,0.2c-3.1,0-6.4,0.3-9.5,0.3c-4.2,0-8.5-0.5-12.6-0.5
		c-6.4,0-12.6,0.5-19,0.7c-4.7,0.2-9.4,0.2-14,0.3c-3.1,0.2-6.2,0.3-9.4,0.7c-1.4,0.2-2.6,0.7-4.3,1.2c-0.5,0-1.7-0.2-2.8,0
		c-1.7,0.3-3.3,1.4-5,1.7c-2.6,0.5-3.3,1.2-2.9,3.8v1.7c-0.3-0.3-0.9-0.7-1.2-0.9l-0.3,0.2c0.2,0.5,0.5,0.9,0.7,1.4
		c0.7-0.3,1.6-1.2,2.3-1.2h2.4c-0.3,0-0.5,1-1,1.9c1.4-0.5,2.3-0.9,3.1-1.2c0.2,0.5,0.2,1.2,0.2,1.4c2.4-0.2,4.7-0.9,6.8-0.3
		c6.8,1.7,13.7,2.4,20.6,3.1c4.5,0.3,8.8,0.5,13.3,0.7c6.4,0.3,12.8,0.7,19.2,0.7c5.4,0,10.6-0.5,15.9-0.5c7.4,0,14.9,0.3,22.3,0.5
		c1.6,0,3.3-0.2,5-0.2H144c11.3-0.3,22.5-0.5,33.8-0.9c6.4-0.2,13-0.5,19.4-0.7l19.7-0.5c7.6-0.2,15.2-0.2,22.7-0.3
		c5.7,0,11.3-0.2,17-0.3c6.4-0.2,13-0.7,19.4-1c3.5-0.2,6.9-0.5,10.4-0.9c4.2-0.3,8.5-0.9,12.6-1c6.2-0.3,12.6-0.5,18.9-0.9
		c7.8-0.5,15.6-1.2,23.5-1.4c7.3-0.3,14.7-0.2,22-0.3c6.4-0.2,12.8-0.5,19.4-0.7l10.9-0.5c0,0,7.3-0.2,10.9-0.5
		c6.2-0.3,12.5-1,18.7-1.2c4-0.2,8,0,11.9-0.2c6.4-0.2,13-0.5,19.4-0.5c2.4,0,5,0.3,8.1,0.5c-1.4,1.2-2.3,1.9-3.3,2.8
		c0.7,0.2,1.4,0.5,2.1,0.9c0,0.2-0.2,0.3-0.2,0.7c-0.9,0-1.7,0.2-2.6,0.2c-0.3,0.9-0.7,1.2-1,2.9h3.1c-1.2,0-2.3,1.6-3.5,2.6
		l0.5,0.3c-1.9-0.7-3.1-0.3-3.8,1.6c0.5,0.2,0.9,0.2,1.4,0.2c-0.2,0.5-0.3,1-0.5,1.7c-0.2,0.3-0.3,0.7-0.3,1.2l-0.5-0.5
		c0-0.3,0-0.7-0.2-1c-1,1-2.6,1.7-1.7,4c-0.7,0.3-1.6,0.7-2.4,1.2c0.2,0.3,0.5,0.7,0.7,1.2c-1.6,0.2-3.1,0.5-2.8,2.4
		c0.7,0.2,1.4,0.5,1.9,0.7c-0.9,0.3-1.7,0.9-2.6,1.2c-0.2,0.3-0.3,1.2-0.7,1.4c-2.4,0.5-1,1.4-0.3,2.3c-0.5,0.3-1,0.7-1.6,0.9
		c0.5,0.2,0.9,0.3,1.2,0.7c-0.5,0.3-0.9,0.5-1.2,0.7c0.3,0.2,0.9,0.5,1,0.5c-0.7,0.5-1.6,1.2-2.6,2.1c0,0.3,0,0.5,0.2,0.9
		c-0.7,0.7-1.4,1.4-2.1,2.4c-0.7,1-1,2.4-1.9,3.5c-3.6,4-6.2,8.7-10.9,11.8c-1.7,1.2-3.3,2.8-4.8,4.3c-3.1,2.9-5.9,6.2-9.2,9
		c-4.3,3.6-8.8,6.9-13.5,10.2c-5.7,4-11.4,8-17.1,11.8c-3.1,2.1-6.6,3.6-9.9,5.5c-3.3,1.9-6.4,3.6-9.7,5.5c-2.1,1.4-4,3.3-6.2,4.3
		c-5.7,2.4-11.8,4.5-17.7,6.8c-0.5,0.2-0.9,0.3-1.4,0.5c-4.3,1.9-8.5,4-12.8,5.5c-4,1.4-8.1,2.4-12.3,3.3c-1.4,0.3-2.9,0-4.5,0.2
		c-2.9,0.5-5.9,1.2-8.8,1.6c-7.6,1-15.2,1.7-22.9,2.8c-4.5,0.5-8.8,1.4-13.3,1.9c-3.1,0.2-6.4-0.2-9.5-0.2c-2.3,0-4.7,0.5-6.9,0.2
		c-3.6-0.5-7.3-1.4-10.9-2.1c-0.9-0.2-2.1-0.5-2.8-0.2c-1.4,0.7-2.6-0.3-4,0c-0.9,0.2-1.7-0.5-2.6-0.5c-0.7-0.2-1.6,0.2-2.4,0
		c-1.9-0.5-3.6-1.2-5.7-1c-2.1,0.2-4.2-0.9-6.4-1.4c-3.1-0.7-6.1-1.4-9.2-2.1c-1.2-0.3-2.3-0.9-3.5-1.6c-0.3,0.2-0.9,0.5-1.6,0.5
		c-2.9-0.5-5.9-0.7-8.7-1.7c-2.4-0.9-4.7-2.1-7.3-1.7c-0.7,0.2-1.2-0.2-1.9-0.2c-0.5-0.7-1-2.1-1.6-2.1c-3.5,0.2-5.5-2.8-8.5-3.6
		c-1.6-0.5-2.8-2.3-4.3-2.8c-3.8-1.6-6.9-4.8-11.3-5.4c-1.4-0.2-2.8-0.9-4.3-1.4c0.5,0.7,0.9,1.2,1.4,1.7l-0.3,0.3
		c-4.7-2.8-9.3-5.5-14-8.1c-0.7-0.2-1.2-0.9-1.7-1.2l-4.7-3.1c-0.5-0.3-1.6-0.9-1.6-0.7c-1,1.2-2.1,0.2-2.8-0.2
		c-4.7-3.3-10-5.4-14.5-9c-1.9-1.6-4.2-2.6-5.5-4.5c-2.4-2.9-5.4-5-8.7-6.8c-2.6-1.4-5-2.9-7.4-4.5c-1.2-0.9-2.4-1.9-2.4-3.8
		c0-1.2-0.5-2.4-2.1-1.7c-0.7-1-1.4-2.3-2.3-2.6c-2.1-0.9-3.5-2.4-5-3.8c-1.6-1.4-2.8-3.3-4.7-4c-3.5-1.4-5.5-4.3-7.6-6.8
		c-4.8-5.7-9.2-11.9-13.7-18c-0.3-0.5-1-0.9-1.6-1.4l-0.2,0.2c0.9,1.7,1.7,3.3,2.6,5l-0.7,0.5c-1-1.2-2.3-2.4-3.3-3.6l-0.5,0.3
		l12.5,19.7c1,1.6,1.9,3.1,2.9,4.7c-0.2,0.2-0.3,0.3-0.7,0.5c-1.9-0.3-3.6-1.7-4.5-3.3c-1.6-2.8-3.3-4.5-6.8-4.2
		c-0.3-1.2-0.7-2.6-0.9-3.8c-0.7,0-1.2,0-2.4-0.2c2.4,3.8,4.5,7.1,6.8,10.9c-0.9-0.5-1.4-0.9-1.7-1c3.1,3.3,5.4,7.4,9.4,9.5
		c0.9,4,5.4,5.9,6.4,9.7c-0.9-0.2-1.6-0.3-2.4-0.5c-1.4-1.7-2.9-3.5-4.5-5.4c0.3,1.2,0.9,2.3,1.6,3.1c2.1,2.6,4,5.2,6.4,7.4
		c0.9,0.9,2.1,1.2,2.1,2.8c0.3-0.3,0.7-0.5,1.4-0.9c-0.3,0.7-0.5,1-0.7,1.6c0.7,0,1.2,0.2,1.7,0.2c0.3,1-0.2,2.6,1.9,2.3l0.5,0.3
		c0.9,2.3,2.3,2.3,4.2,1.4c0.3-0.2,1.2,0,1.4,0.3c0.9,1.9,2.1,2.1,3.6,0.7c0,0.9,0.2,1.7,0.2,2.4h0.7c0-0.3-0.2-0.9-0.2-1.7
		c0.9,0.7,1.4,1,1.7,1.4c1.7,2.4,3.3,4.7,5.7,6.6c3.3,2.8,6.2,5.7,9.3,8.3c6.1,5,12.8,9.2,19.6,13c8.3,4.7,16.3,9.7,24.8,14.2
		c10.2,5.4,21.1,9,32.4,11.6c4.2,0.9,8.1,1.7,12.3,2.8c3.6,1,7.3,2.6,10.9,3.5c5.5,1.2,11.3,2.3,16.8,3.3c1.2,0.2,2.4,0.3,3.8,0.5
		v0.3c1.6,0,3.5-0.7,3.8-0.2c0.9,1.4,1.6,0.7,2.6,0.5c1.2-0.3,2.6-0.3,4-0.3c4.8,0.2,9.5,1.2,14.4,0.9c1,0,2.6-0.9,3.5,0.9
		c0.3-0.2,0.5-0.3,0.9-0.5c0.7-0.2,1.6-0.2,2.3-0.3v0.3c-0.3,0.2-0.7,0.2-1.4,0.3c0.9,0.2,1.4,0.3,1.9,0.5c-0.3,0.3-0.5,0.3-0.9,0.5
		c-0.3,0.2-0.9,0.3-1.6,0.9c6.2,1.2,12.1,1.4,17.3,0v-1h0.7c0,0.3,0.2,0.7,0.3,1c8,0.7,15.8-0.3,23.2-2.9c0.7,0.9,1.2,2.1,2.3,0.3
		c0.3-0.5,1.2-0.7,1.9-0.9c1.6-0.3,3.5-1,4.8-0.5c1.6,0.5,2.1-0.9,3.3-0.9c2.1,0,4-0.2,5.9-0.5c1-0.2,2.1-0.7,3.3-1l-0.2-0.5
		c-1.2-0.2-2.6-0.3-3.6-0.3c2.1-1,4-1.9,5.9-2.8l0.2,0.3c-0.5,0.2-0.9,0.9-1.6,0.9h2.4c-0.5,0-1.2,1.6-2.1,2.6
		c6.2-1.6,11.9-2.9,17.5-4.3v-0.3c-0.7,0.2-1.2,0.2-1.7,0.3c-0.2-3.6,3.8-2.4,5.2-4.5c-1.7,0.5-3.5,1-5.2,1.4V497
		c5.9-2.6,11.9-5.2,17.8-7.8l0.2,0.3c-1,0.7-2.1,1.2-3.6,2.1c1,0.2,1.7,0.2,2.3,0.3c0,0.5,0,0.9-0.2,1c2.9-0.2,2.3-2.8,3.1-4.3
		c0.5,0.2,1.2,0.5,1.7,0.3c1.6-0.3,2.9-0.9,4.5-1.4c1.7-0.5,3.5-1,5.2-1.7c2.8-1.2,5.4-2.8,8.1-4.2c0.5-0.2,1.4,0,2.1,0
		c0.5,0,0.9-0.3,1.2-0.7c0.7-0.5,1.4-1.6,1.9-1.4c2.4,0.3,4.2-0.5,4.8-2.8l0.3-0.2c0.9-0.7,1.7-1.4,2.6-1.9
		c3.8-2.1,7.4-4.2,11.3-6.2c0.2-0.2,0.5,0,0.9,0c0.5,0,1.2,0,1.6-0.2c2.3-1,4.3-2.3,6.4-3.5c-0.5-0.2,0-0.3-1.7-0.5v-0.3
		c1.7-0.3,2.3-0.5,3.3-0.9l-0.3-0.3c4.5-4.5,10.2-7.8,14.5-11.6c0.9,0.2,1.2,0.3,1.7,0.3c0.2-0.5,0.2-1,0.2-1.4
		c0.7-0.9,1.4-1.9,2.3-2.6c3.8-3.5,8-6.4,11.4-10c5-5,9.9-10.2,14.4-15.6c4.2-4.8,8.3-9.7,11.8-15.1c4.8-7.4,9-15.1,13.3-22.9
		c3.1-5.5,5.9-11.1,9-16.6c0.3-0.5,1-1.2,1.6-1.2c4.7-0.5,9.4-0.9,13.9-1.4c1-0.2,2.3-0.9,3.3-1.4c-0.5-0.9-0.9-1.9-1.4-2.8
		c-0.7-1-1.7-1.9-2.4-2.9c-0.7-0.9-1.2-1.9-1.7-2.9c-0.5-0.9-1-1.6-1.6-2.4c-1-1.9-2.1-3.8-2.9-5.9c-0.2-0.5-0.5-1.4-0.3-1.9
		c3.1-6.8,4.3-14,7.3-20.8c2.9-6.9,3.8-14.7,5.2-22.2c1.2-7.1,1.9-14.2,2.8-21.3c0.5-5,1.2-9.9,1.4-14.9
		C512.8,257.5,512.4,250.1,512.3,242.6z M77,435.9c-1.2-1.4-2.3-2.9-3.5-4.3L74,431c1.9,2.1,3.8,4.2,5.7,6.4
		C78.7,436.9,77.5,436.6,77,435.9z M79.7,437.4c0.5-0.2,1-0.2,1.6-0.3c0.5,0.9,0.9,1.9,1.4,2.9C80.3,439.9,79,438.8,79.7,437.4z
		 M259.8,508.9v-0.5c3.3-0.3,6.4-0.7,9.7-1v0.5C266.2,508.4,263.1,508.8,259.8,508.9z M303.4,504.4c-2.4,0.5-5,0.9-7.4,1.2
		c-0.9,0.2-1.9,1-2.3-0.5c-0.3,0.2-0.7,0.2-1,0.3c0.9,2.6,2.9,0.5,4.7,1.6c-3.8,0.5-7.4,0.9-11.1,1.4v-0.3c1-0.2,2.3-0.3,3.3-0.5
		V507c-1.7-0.2-3.5-0.3-5.2-0.3c-0.5,0-1.2,0.7-1.7,0.9c-0.7,0.2-1.4,0.3-2.3,0.3c-2.9,0.2-5.9,0.2-8.7,0.3l-0.7-0.2v-0.5
		c11.6-1.6,23-3.1,34.6-4.7c0.2,0.3,0.2,0.7,0.3,1C305,503.9,304.3,504.3,303.4,504.4z M306,502.7c4-0.5,7.6-0.9,11.4-1.4
		C309.5,503.6,306.9,503.9,306,502.7z M155.2,153.1c5.5-7.6,11.3-15.2,16.8-23c1.7-2.3,3.1-4.7,4.8-6.9c0.5-0.7,1.2-1,2.1-1.7
		l-0.2-0.3c0.7-0.9,1.4-1.6,1.7-2.3c0.9-1.4,1.4-2.9,2.1-4.5c0.2-0.3,0.7-0.7,0.7-0.7c2.4,1.2,2.4-1.4,3.3-2.3
		c1.6-1.7,3.1-3.6,4.5-5.4c1-1.4,2.1-2.6,2.9-4.2c0.2-0.5-0.3-1.4-0.5-2.1H193c0.5-0.3,1-0.9,1.6-1.2l0.3-0.2c1-1.6,2.1-3.1,3.1-4.5
		c2.1-2.8,4.3-5.5,6.8-8c-0.3,0.9-0.7,1.7-1,2.4l0.3,0.2c2.1-2.8,4.3-5.4,6.4-8.1l-0.5-0.3c-0.9,0.9-1.6,1.7-2.4,2.6l-0.5-0.3
		c1.7-2.3,3.5-4.5,5.2-7.1c0.3,0.5,0.7,1.2,1.4,2.6c0.7-1.7,1.4-2.9,1.9-4.2c-0.5,0.5-1.2,1-1.7,1.6l-0.5-0.5l3.1-4.7
		c3.3-4.7,6.6-9.5,9.9-14.2c1.2-1.7,2.8-3.1,3.8-4.8c3.3-6.6,8.5-11.8,12.5-17.8c0.9-1.2,2.1-2.3,3.1-3.3c0.9-1,1.6-0.7,2.3,0.2
		c4.7,5.9,9.3,11.9,14,17.8c3.5,4.3,6.9,8.5,10.2,13c4,5.5,7.8,11.1,11.8,16.6c4.5,6.4,9,12.8,13.3,19.4
		c6.6,9.7,12.8,19.4,19.4,29.1c4.8,7.1,9.7,14,14.4,21.1h-8.8c-8.1-0.2-16.4-0.9-24.6-0.5c-11.1,0.5-22.3,1.7-33.4,2.6
		c-14,1.2-28.2,1.4-42.2,1.4c-5,0-10,0.7-15.1,1c-6.1,0.3-11.9,0.7-18,0.9c-7.1,0.3-14,0.5-21.1,0.7
		C163.7,153.3,159.6,153.1,155.2,153.1z M353.8,232.8v1.6c-0.2,0-0.3,0.2-0.7,0.2c-0.7-2.4-1.4-5-2.3-7.4c-1.7-5-3.6-10-6.8-14.5
		c-3.5-4.8-6.6-9.9-10-14.9c-0.9-1.2-2.1-2.3-3.1-3.3c-3.6-4-7.3-8.1-11.9-11.1c-6.9-4.3-14-8-21.6-11.1c-2.1-0.9-4-1.9-6.1-3.1h4.2
		l29.6-0.5c6.4-0.2,12.6-0.2,19-0.5c1.6,0,2.4,0.5,3.3,1.9c1.6,2.6,3.1,5.2,4.8,7.8c0.2,0.3,0.5,0.9,0.5,1.4c0,3.8,0,7.8,0.2,11.6
		c0.2,4,0.5,7.8,0.7,11.8c0,4-0.3,8.1-0.2,12.3C353.7,220.6,353.8,226.7,353.8,232.8z M167.5,174.8c8.1-0.3,15.9-0.9,23.9-1.2
		c6.2-0.3,12.6-0.5,18.9-0.9c2.6-0.2,5-0.3,7.6,0c-2.8,1.4-5.5,2.8-8,4.5c-3.1,2.1-6.1,4.8-9.2,7.1c-3.1,2.2-5.9,5-8.5,8
		c-3.3,4-6.9,7.4-10.4,11.3c-2.4,2.8-5.2,5.4-7.3,8.3c-2.9,3.8-5.5,8-8.3,12.3C167.2,207.7,168.2,191.4,167.5,174.8z M280.6,341.3
		c-5.5,1.4-11.3,2.9-17,3.6c-4.8,0.7-9.9,0.5-14.9,0.5c-4.5,0-8.8-0.2-13.3-0.5c-5-0.5-10-1-14.9-3.3c-4.2-1.9-8.5-3.6-12.6-5.7
		c-4.2-2.1-8.3-4.5-11.4-8.3c-2.3-2.8-5.4-5-8.1-7.4c0.5,2.1,1.7,3.8,3.6,5c-0.9,1-2.1,0.5-3.8-2.3c-0.5,0.3-1,0.5-1.4,0.7
		c0.5-1.2,1-2.4,1.6-3.5c-0.7-1.4-1.6-2.9-2.3-4.3c-1.4-2.3-2.8-4.7-4-6.9c-0.3-0.5-0.3-1-0.7-1.6c-0.9-1-1.7-2.1-2.4-3.1
		c-1.4-2.1-2.6-4.3-4.3-6.4c0,0.5,0.2,1,0.2,1.7l-0.3,0.2l-3.6-8.8l-0.3,0.2l3.1,11.4l-0.5,0.2c-0.5-0.7-1-1.4-1.4-2.3
		c-0.3-1.4-1.4-1.4-2.3-0.9c-0.5,0.3-0.9,1.6-0.7,2.1c1.2,2.9,2.6,5.9,4,8.8c0.3,1,0.7,1.9,1.2,2.9c0.2,0.3,0.7,0.7,0.7,1.2
		c0.7,1.4,1.2,2.8,2.1,4c1.6,2.1,3.3,4.2,4.8,6.2c1.6,2.1,2.9,4.3,4.3,6.4c0.2,0.3,0.7,0.3,0.9,0.5c0.9,2.6,3.8,4.5,5.9,3.5
		c0.5,4,4.8,5.4,6.6,9.2c-2.1-0.9-3.6-1.6-5-2.3c-0.2,0.2-0.2,0.3-0.3,0.7c2.1,1,4.2,2.1,6.1,3.3c1.7,1,3.5,2.1,5,3.3
		c2.1,1.9,4.5,2.9,7.4,3.6c-0.2-0.5-0.3-0.7-0.3-0.7c4.8,2.3,9.9,4.7,13.7,6.6c-18,0.3-37.2,0.7-57.1,1c0-3.3-0.2-6.4-0.2-9.7
		c0-1.4,0.3-2.6,0.2-4c-0.5-8-0.5-15.9-1.6-23.7c-1-8.3-1-16.4-0.9-24.8c0.2-4.5-0.2-9.2-0.3-13.7c0-6.1,0-11.9,0.2-18
		c0-0.9,0.3-1.6,0.7-2.4h0.5c0.2,0.3,0,0.9,0.3,1c0.5,0.5,1.4,1.4,1.7,1.2c1-0.7,2.6-1.4,2.9-2.4c0.9-2.1,1.2-4.3,1.2-6.4
		c0-1.6,0.7-2.6,1.4-3.6c0.3-0.5,0.5-1,0.9-1.7c-0.7-0.5-1.4-0.9-2.3-1.6c0.7-1.9,0.5-4.2,3.1-5.2c0.3-0.2,0.3-1,0.5-1.6
		c0.2-1.4,0.3-2.9,0.5-4.3c0.3,0.5,0.5,0.7,0.9,1c0.2-0.3,0.3-0.5,0.3-0.5c0-0.7-0.2-2.1,0-2.1c2.1-0.3,1.2-2.6,2.3-3.6
		c0.2-0.2-0.2-0.7-0.2-1c0-0.3,0-0.9,0.2-0.9c2.4-0.5,2.1-3.1,3.6-4.3c0.5-0.3,0.7-0.9,1.4-1.7c1.4,2.4-1,3.6-1.2,5.4
		c2.9-1.7,3.8-5.9,2.1-7.1c0.7-0.5,1.4-1.2,1.9-1.9c1.9-2.1,4-4,5.7-6.1c1.2-1.6,1.9-3.5,3.1-5c0.7-0.9,2.1-1.6,3.1-2.1
		c3.1-1.7,6.1-3.6,8-6.6c0.3-0.3,0.9-0.7,1.4-1c0.5-0.3,1.6-0.3,1.7-0.9c0.2-0.3-0.3-1.2-0.7-1.7c0.7-0.3,1.4-1,2.8-1.7
		c-0.5,1-0.7,1.7-1,2.4l0.9,0.9c1.6-1.2,4-2.6,5.5-3.6l-0.9-0.9c-1,0.5-2.6,1.4-4.2,2.1c0.3-0.5,0.3-0.9,0.5-1
		c2.4-1.6,4.8-3.1,7.4-4.3c6.1-2.8,12.1-5.5,18.2-8.1c1-0.5,2.4-0.2,3.6-0.2c0.5,0,0.9,0,1.4-0.2c2.8-0.9,5.5-1.7,8.3-2.4
		c1.2-0.3,2.6-0.5,3.8-0.5c5.2,0.2,10.4,0.2,15.6,0.5c2.3,0.2,4.3,0.7,6.4,1.4c2.6,0.9,5.4,2.1,7.8,3.3c2.9,1.6,5.7,3.3,8.5,5.2
		c5,3.3,9.7,6.9,14.7,9.9c4.8,2.9,8.7,6.9,11.8,11.4c3.8,5.4,8.1,10.2,9.9,16.8l2.6,11.4c0.5,2.1,1.7,4.2,1.2,6.6
		c-0.9,4.3-1.6,8.8-2.3,13.2c-0.3,1.7-0.7,3.5-0.5,5.2c0.3,5.4-1.7,10-3.8,14.9c-0.7,1.6-1.7,3.1-2.6,4.8l1.4,0.7l1.6-3.1l0.3,0.2
		c-0.9,2.4-1.6,5-2.4,7.4c-2.1,5.4-4.2,10.9-6.8,16.1c-1.4,2.9-3.8,5.4-5.5,8.1c-1.7,2.4-3.1,5-4.8,7.3c-1.6,1.9-3.1,3.8-5.2,5.2
		c-4.7,3.5-9.5,6.9-14.5,9.7C287.7,339.4,284.1,340.5,280.6,341.3z M188.3,332.2l-0.2,0.2c-0.3-0.2-0.9-0.3-1.2-0.7l-4.2-6.2
		c-0.3-0.5-0.5-1-0.3-1.7C184.3,326.6,186.2,329.4,188.3,332.2z M296,355.9c7.8-3.3,14.2-8,20.1-13.3c0.9-0.9,1.7-1.7,2.8-2.4
		c7.3-4.5,12.6-10.7,17.5-17.7c5.5-8,9.2-17,13.7-25.5c0.3-0.7,0.7-1.4,1-1.9c-0.3,19.7,1.9,39.1,4.5,58.7
		C336,354.5,316.1,355.2,296,355.9z M471.6,350.7c-0.2,0.3-0.5,0.7-0.7,1c-0.2-0.3-0.2-0.9-0.3-1.6c-1,2.8-3.3,1.4-4.8,1.4
		c-9.3,0.2-18.9,0.2-28.2,0.2c-9,0-18.2,0-27.2,0.2c-2.9,0-6.1,0.7-9,0.9c-7.1,0.3-14.2,0.5-21.3,0.7c-0.5,0-1-0.9-1.9-1.6
		c-0.2,0.3-0.5,0.9-1,1.6c-0.2-0.3-0.5-0.7-0.9-1.2c-0.2,0.5-0.3,1-0.5,1.4h-0.5c-0.3-2.4-1-4.7-1-7.1c0-5.2,0.5-10.4,0.7-15.6
		c0.2-2.4,0-4.7,0-6.9c0.7,0.5,1.2,0.9,1.9,1.4c0.3-0.7,0.7-1.2,1-1.7c0,0-0.3-0.2-0.7-0.5c0.3-0.2,0.7-0.5,0.7-0.7
		c0.2-0.5,0.5-1,0.5-1.4c0-1.2-0.3-2.3-0.5-3.3l0.5-0.2l1,5.2h0.5c-0.7-1.2,1.6-2.3-0.3-3.6c-0.2-0.2,0.2-1.2,0.2-1.7
		c-0.5-1-0.9-2.1-1.4-3.5c0.2-0.2,0.7-0.3,1.2-0.5c-0.7-0.3-1.2-0.7-1.7-0.9c1.7-1.6,1.7-2.4,0.2-4.2c0.3-0.2,0.7-0.2,0.7-0.3
		c0-1.6,0-3.1-0.3-4.7c-0.3-1.7,0.5-3.8-2.1-4.8c0.2,0.5,0.3,0.9,0.7,1.4c0,0-0.5,0.2-1,0.5c-2.2-2.1-0.9-4.8-1.4-8
		c1.2,0.3,2.1,0.7,2.9,1c-0.3-1.2-1.2-2.6-1.7-4.2H375V278c0,0.2,1.2,0.2,1.9,0.3l0.2-0.5c-0.5-0.7-1.2-1.4-1.9-2.3l0.3-0.3
		c-1.4-1.7-0.7-4.2-0.7-4.7v-12.1c1.7,1.7-0.9,4,1.7,5v-1.7h-0.2c-0.2-2.6-0.2-5.2-0.3-7.8h-0.3c-0.2,0.3-0.2,0.5-0.3,0.9H375
		c0.3-13.7,0.7-27.4,1-41.4c1.7,2.3,3.6,4.3,4.8,6.6c4,7.3,9.2,13.5,14,20.1c4.2,5.7,8,11.9,11.8,17.8c4.7,7.1,9.2,14.2,13.9,21.3
		c3.5,5.4,7.1,10.7,10.7,15.9c3.3,4.7,6.8,9.2,10.2,13.7c2.9,4,6.1,8,9,11.9c3.5,4.8,6.9,9.7,10.4,14.4c1.7,2.4,3.6,4.8,5.5,7.3
		c1,1.4,2.6,2.4,3.6,3.3c-0.2,0-0.3,0-0.7-0.2c0.5,0.7,0.9,1.2,1.2,1.6C472.4,348.1,472.6,349.1,471.6,350.7z M480.4,307.4v-1.2
		C480.4,306.5,480.6,307,480.4,307.4z M486.3,231l-1.4-1.2c-0.2,0.5,0,1-0.3,1.7c-0.2-0.5-1.4-0.3-1.4-0.9c-0.2,2.4,1,4.8,0.9,7.3
		c0.5-0.3,2.6-0.5,3.1-1l0.7,0.3c-3.5,2.6-2.6,5.2-1,8.1c0.3,0.7,1.4,2.1,0.3,3.5c-0.3,0.3,0.2,1.4,0.3,2.3h0.5v0.3l-1.6,0.5
		c-0.3-0.5-2.4-1.6-2.4-2.4v8.8c1.7,0.5,1.7,2.9,2.4,4.2c0.3-0.5,0.5-0.9,0.7-1.4l0.2,0.2c-0.2,1-0.3,2.1-0.7,3.1
		c-0.3,1.6-0.7,2.9-0.9,4.5l0.3,0.7c-1.9,4.3-0.9,9.2-1.6,13.7c-0.5,3.3,0,6.8-0.3,10.2c-0.3,2.9-1,6.1-1.7,9
		c-0.2,0.5-0.5,0.7-1.4,1c0.3-2.1,0.2-3.5-0.2-5.4l-2.6-1.2c0,2.4,1.4,5.7,1.9,8.5c-0.5-0.2-2.6-1.4-2.8-1.4
		c-0.3,2.1-0.3,4.8-0.5,7.1c-0.2,1.7-1.7,3.3-1.9,5.2c0,1,1.2,1.7,1,3.5h1.4c0-3.5,1.6-6.6,1.6-10.2h0.5c0.2,0.3,0.7,0.7,0.5,0.9
		c-0.3,1.9-1,4-0.9,5.9c0,1,0.9,2.1,0.5,3.3c-0.3,1-0.5,2.1-0.7,3.6c-0.2-0.9-0.3-1.2-0.3-1.7l-1.9-0.2c-0.2,1,1.2,2.1,1,2.9
		c-0.2,0.2-0.3,0.2-0.7,0.3l-5.7-8.3c-4.5-6.6-9-13.2-13.5-19.9c-1.2-1.7-2.3-3.5-3.1-5.2c-5.4-9.2-11.3-18-17.8-26.5
		c-5-6.4-9-13.3-13.7-20.1c-4.3-6.4-8.7-12.6-13-19c-1.6-2.1-3.5-4-4.8-6.2c-4.5-7.1-8.5-14.4-13-21.5c-3.8-5.9-8-11.6-11.9-17.3
		c-1.4-1.9-2.8-4-4.2-6.1c-0.2-0.3-0.3-0.7-0.3-1.2c-0.3-3.8-0.7-7.6-0.9-11.3c0-3.5,0.3-6.9,0.3-10.6v-3.1c0-0.9,0.2-1.6,0.2-2.4
		l0.5-0.7c-5,0-10.2-0.2-15.2,0c-3.3,0.2-5-1.2-7.3-3.6c-6.6-7.4-11.4-15.9-17.1-23.9c-5.4-7.6-10.9-15.1-16.4-22.5
		c-4.5-6.1-9-11.9-13.5-18c-5-6.9-9.9-13.9-15.1-20.8c-6.2-8.3-12.6-16.6-19-24.9c-2.9-3.8-6.2-7.4-9.5-11.4
		c2.3,0.3,4.3,0.7,6.4,0.9l8.3,0.5c6.2,0.5,12.5,0.9,18.7,1.7c5.2,0.7,10.4,1.7,15.8,2.6c11.4,1.9,22.7,5,33.6,8.7
		c6.4,2.1,12.6,4.8,18.9,7.4c14,5.7,27.4,12.6,40.5,19.9c4.2,2.3,6.6,5.9,9.7,9.2c4.5,4.7,9,9.4,13.3,14.2c5,5.7,9.7,11.6,14.5,17.5
		c4.3,5.2,8.8,10.4,13.2,15.6c1.4,1.6,2.4,3.5,3.6,5.2c2.8,4.2,5.9,8.1,8.3,12.6c1.7,3.3,2.8,7.1,4,10.7c1.7,5.4,3.5,10.6,5.2,15.9
		c1.2,4,2.3,8.1,3.1,12.3c0.7,2.8,0.5,5.7,1.4,8.5c1,3.6,0,7.6,1,11.3c0.2,0.3,0.3,0.9,0.5,1.2c0.7,0.7,1.2,1.4,0.2,2.4
		c-0.2,0.2-0.2,0.9,0,1.4c0.3-0.3,0.5-0.7,0.9-1.2c0,0.3,0.2,0.5,0.2,0.7c0,0.7-0.2,1.4,0,2.1c0,0.3,0.3,0.9,0.5,1.2
		c0.3-0.3,0.7-0.5,1.4-1c1.6,5.9,1.7,11.8,1.7,17.8c0,5.7,1,11.4-1.4,17C487,234.5,485.8,232.8,486.3,231z"/>
	<path class="st0" d="M376.2,298.9l0.3,0.2l-0.2-0.2H376.2z M403.6,470c-1.9,1.4-3.8,2.6-6.2,3.1l-0.3-0.5c1.9-1.2,4-2.4,5.9-3.6
		C403.1,469.3,403.4,469.7,403.6,470z M78.9,235.4c1.9-2.4,3.8-4.8,5.9-7.3l1.7,0.7c-1.9,2.4-4.5,5.7-6.4,8.3
		C79.8,236.8,79.3,235.6,78.9,235.4z M29.7,320.2c-1.4-2.9-2.8-6.1-4.2-9l1.6-0.7c1.9,2.8,2.8,6.1,4.2,9L29.7,320.2z M73.9,237.1
		c-1,1.6-2.1,3.3-3.1,4.8l-2.2,0.5c1-1.6,3.6-4.3,4.7-5.9C73.4,236.8,73.5,236.9,73.9,237.1z M385.1,477.1l0.3-0.2
		c1.2,0.2,2.6,0.3,4,0.3C387.1,478.8,385.7,478.7,385.1,477.1z M74.2,244.4c0.2-0.5,0.5-1,0.9-1.6c0.3,0,0.9-0.2,0.9-0.2
		c0.7-1.2,0.7-2.1,1.4-3.1l-0.5-0.3c-1,0.7-2.1,1.6-3.1,2.3c0.3,0.3,0.3,0.5,0.3,0.9c-1.4-0.2-1.9,0.5-2.6,2.4
		c-0.2,0.5-1,0.7-1.9,1.4c-0.2,0.3-0.3,1.2-0.7,2.1l0.2,0.2c-0.3,0.3-0.9,0.5-0.9,0.5c-1,1-2.3,1.9-3.3,2.9c-0.2,0.5-0.3,1-0.3,1.6
		c1.2-1.2,3.3-3.5,4.8-4.8l0.2,0.2c0.7-1,1.2-2.1,1.9-3.1l0.3,0.5c-0.5,1.4-1,2.9-1.6,4.3c-0.3,0.2-0.9,0.5-0.9,0.3
		c-0.7,0.5-1.2,1.2-1.9,1.7l-3.1,2.1c-1.7,1.6-3.5,2.9-5.4,4.5c-1.2,1.9-2.4,3.6-3.8,5.9c2.1-0.5,2.6,0.3,2.4,2.1
		c2.4,0.3,2.6-1.6,3.3-2.9c0.2-0.3,0.3-1,0.7-1.2c1.6-1.4,3.3-2.6,5-4c0.3-0.3,0.3-1,0.3-1.6c0-0.2-0.9-0.2-1.4-0.3
		c1.6-1.7,3.8-4.7,5.4-6.6c0.9-0.5,1.7-1.2,1.7-1.7c-0.2-1.9,1-2.4,2.4-3.1C74.4,245.1,74.2,244.6,74.2,244.4z"/>
	<path class="st0" d="M77.7,242.5c-0.7,1.2-1.4,2.3-2.1,3.5l-1-0.5c-0.7,4-3.1,7.4-5.5,8.1c0.7,0.3,1.4,0.7,1.9,0.5
		c0.5-0.2,0.9-1,1.2-1.6l4.7-6.8l1.6-2.6L77.7,242.5z M20,318.5c0.9,0,1.7,0.2,2.8,0.2c0-0.7,0.9-0.5,0.9-1.2h0.5
		c0,0.9,0.2,1.6,0.2,2.4h-3.6L20,318.5z M18.7,310.5c-0.5-0.5-1.4-1-1.4-1.6c-0.2-0.7,0.3-1.6,0.9-2.4c0.3,1.2,0.5,2.2,0.9,3.5
		L18.7,310.5z M23,299.5c0.7,1.7,1.4,3.6,2.1,5.4l-1.4,0.7c-0.7-1.7-1.6-3.6-2.3-5.4C21.6,300,22.6,299.5,23,299.5z M408.4,465
		c0.9-0.3,1.9-0.5,3.3-0.9c-1.6,1.2-2.8,2.1-3.8,3.1l-0.5-0.3C407.7,466.2,408.1,465.7,408.4,465L408.4,465z M195.6,99.1
		c1-0.7,1.9-1.2,2.9-1.9l0.3,0.3c-1,1.4-1.9,2.8-3.1,4.5c-0.2-1.2-0.2-1.9-0.3-2.8L195.6,99.1z M246.4,186.7c1.6-0.7,3.1-1.4,5-2.3
		c-0.2,1-0.2,1.7-0.2,2.4c-0.5-0.2-1.2-0.3-1.7-0.3c-1,0.2-2.9,1.6-3.8,1.7L246.4,186.7z M376.2,333.6c0.3,1.7,3.6,2.6,0.3,4.3
		c0.5,0.3,1,0.5,1.6,0.9l-0.3,0.7c-0.3,0.2-1,0.5-1.4,0.3c-0.2,0-0.5-0.7-0.5-1C375.9,337.2,376,335.6,376.2,333.6z"/>
</g>
</svg>
